<?xml version="1.0" encoding="utf-8"?>
<svg version="1.1" id="f3" xmlns="http://www.w3.org/2000/svg" xmlns:xlink="http://www.w3.org/1999/xlink" x="0px" y="0px"
	 viewBox="0 0 34.2 37.8" style="enable-background:new 0 0 34.2 37.8;" xml:space="preserve"  class="face-container">
      <ellipse id="shadow-3" class="shadow" cx="17.3" cy="37.2" rx="9" ry="0.6"/>
      <path id="face-3" class="face" d="M17.1,34.3C7.6,34.3,0,26.6,0,17.1C0,7.7,7.6,0,17.1,0s17.1,7.7,17.1,17.1
	C34.3,26.6,26.6,34.3,17.1,34.3z M17.1,2.9C9.2,2.9,2.8,9.3,2.8,17.1c0,7.9,6.4,14.3,14.3,14.3S31.4,25,31.4,17.1
	C31.4,9.3,25,2.9,17.1,2.9z M11.4,14.3c-1.6,0-2.9-1.3-2.9-2.9s1.3-2.9,2.9-2.9s2.9,1.3,2.9,2.9S13,14.3,11.4,14.3z M17.1,27.1
	c-3.8,0-7.1-2.4-8.2-6c-0.2-0.8,0.2-1.5,0.9-1.8c0.7-0.2,1.5,0.2,1.8,0.9c0.7,2.4,2.9,4,5.4,4s4.7-1.6,5.4-4c0.2-0.8,1-1.2,1.8-0.9
	c0.7,0.2,1.2,1,0.9,1.8C24.2,24.7,20.9,27.1,17.1,27.1z M22.8,14.3c-1.6,0-2.9-1.3-2.9-2.9s1.3-2.9,2.9-2.9s2.9,1.3,2.9,2.9
	S24.4,14.3,22.8,14.3z"/>
    </svg>