<svg version="1.1" id="f4" xmlns="http://www.w3.org/2000/svg" xmlns:xlink="http://www.w3.org/1999/xlink" x="0px" y="0px"
	 viewBox="0 0 34.2 37.8" style="enable-background:new 0 0 34.2 37.8;" xml:space="preserve" class="face-container">
      <ellipse id="shadow-4" class="shadow" cx="17.3" cy="37.2" rx="9" ry="0.6"/>
      <path id="face-4" class="face" d="M17.1,34.3C7.6,34.3,0,26.6,0,17.1C0,7.7,7.6,0,17.1,0s17.1,7.7,17.1,17.1
	C34.3,26.6,26.6,34.3,17.1,34.3z M17.1,2.9C9.2,2.9,2.8,9.3,2.8,17.1c0,7.9,6.4,14.3,14.3,14.3S31.4,25,31.4,17.1
	C31.4,9.3,25,2.9,17.1,2.9z M11.4,14.3c-1.6,0-2.9-1.3-2.9-2.9s1.3-2.9,2.9-2.9s2.9,1.3,2.9,2.9S13,14.3,11.4,14.3z M22.8,14.3
	c-1.6,0-2.9-1.3-2.9-2.9s1.3-2.9,2.9-2.9s2.9,1.3,2.9,2.9S24.4,14.3,22.8,14.3z M25.3,19.3c-0.2-0.1-0.5-0.1-0.7,0H10.3
	c-0.2,0-0.5,0-0.7,0c-0.8,0.2-1.2,1-0.9,1.8c1.1,3.6,4.1,7.2,8.7,7.2c4.2,0,7.8-3.6,8.9-7.2C26.5,20.3,26.1,19.5,25.3,19.3z
	 M17.3,25.4c-1.8,0-3.7-1.1-4.9-3.1h10C21.1,24.2,19.1,25.4,17.3,25.4z"/>
    </svg>