<?xml version="1.0" encoding="utf-8"?>
<svg version="1.1" id="f2" xmlns="http://www.w3.org/2000/svg" xmlns:xlink="http://www.w3.org/1999/xlink" x="0px" y="0px"
	 viewBox="0 0 34.2 37.8" style="enable-background:new 0 0 34.2 37.8;" xml:space="preserve"  class="face-container">
      <ellipse id="shadow-2" class="shadow" cx="17.3" cy="37.2" rx="9" ry="0.6"/>
      <path id="face-2" class="face" d="M17.1,34.3C7.6,34.3,0,26.6,0,17.1C0,7.7,7.6,0,17.1,0s17.1,7.7,17.1,17.1
	C34.3,26.6,26.6,34.3,17.1,34.3z M17.1,2.9C9.2,2.9,2.8,9.3,2.8,17.1c0,7.9,6.4,14.3,14.3,14.3S31.4,25,31.4,17.1
	C31.4,9.3,25,2.9,17.1,2.9z M11.4,14.3c-1.6,0-2.9-1.3-2.9-2.9s1.3-2.9,2.9-2.9s2.9,1.3,2.9,2.9S13,14.3,11.4,14.3z M22.8,14.3
	c-1.6,0-2.9-1.3-2.9-2.9s1.3-2.9,2.9-2.9s2.9,1.3,2.9,2.9S24.4,14.3,22.8,14.3z M23.2,20.6H11.7c-1.1,0-2,0.9-2,2c0,1.1,0.9,2,2,2
	h11.5c1.1,0,2-0.9,2-2C25.2,21.5,24.3,20.6,23.2,20.6z"/>
    </svg>