<?xml version="1.0" encoding="utf-8"?>
<!-- Generator: Adobe Illustrator 20.1.0, SVG Export Plug-In . SVG Version: 6.00 Build 0)  -->
<svg version="1.1" id="Layer_1" xmlns="http://www.w3.org/2000/svg" xmlns:xlink="http://www.w3.org/1999/xlink" x="0px" y="0px"
	 viewBox="0 0 34.3 46.8" style="enable-background:new 0 0 34.3 46.8;" xml:space="preserve">
<style type="text/css">
	.st0{fill:#C8C8C8;}
	.st1{fill:#E38845;}
</style>
<ellipse class="st0" cx="17.1" cy="46.2" rx="7.4" ry="0.6"/>
<path class="st1" d="M17.2,34.3c-9.4,0-17.1-7.7-17.1-17.2C0.1,7.7,7.8,0,17.2,0c9.5,0,17.1,7.7,17.1,17.1
	C34.4,26.6,26.7,34.3,17.2,34.3z M17.2,2.9C9.4,2.9,3,9.3,3,17.1C3,25,9.4,31.4,17.3,31.4S31.6,25,31.6,17.1
	C31.5,9.3,25.1,2.9,17.2,2.9z M11.5,14.3c-1.6,0-2.9-1.3-2.9-2.9s1.3-2.9,2.9-2.9s2.9,1.3,2.9,2.9S13.1,14.3,11.5,14.3z M23,14.3
	c-1.6,0-2.9-1.3-2.9-2.9s1.3-2.9,2.9-2.9s2.9,1.3,2.9,2.9S24.5,14.3,23,14.3z"/>
<path class="st1" d="M23.2,24.2H11.7c-1.1,0-2-0.9-2-2l0,0c0-1.1,0.9-2,2-2h11.5c1.1,0,2,0.9,2,2l0,0C25.2,23.3,24.3,24.2,23.2,24.2
	z"/>
</svg>
