<?xml version="1.0" encoding="utf-8"?>
<!-- Generator: Adobe Illustrator 20.1.0, SVG Export Plug-In . SVG Version: 6.00 Build 0)  -->
<svg version="1.1" id="Layer_1" xmlns="http://www.w3.org/2000/svg" xmlns:xlink="http://www.w3.org/1999/xlink" x="0px" y="0px"
	 viewBox="0 0 34.3 46.8" style="enable-background:new 0 0 34.3 46.8;" xml:space="preserve">
<style type="text/css">
	.st0{fill:#C8C8C8;}
	.st1{fill:#A2A963;}
</style>
<ellipse class="st0" cx="17.1" cy="46.2" rx="7.4" ry="0.6"/>
<g>
	<path class="st1" d="M17.2,34.3c-9.5,0-17.1-7.7-17.1-17.2C0.1,7.7,7.7,0,17.2,0s17.1,7.7,17.1,17.1C34.4,26.6,26.7,34.3,17.2,34.3
		z M17.2,2.9C9.3,2.9,2.9,9.3,2.9,17.1c0,7.9,6.4,14.3,14.3,14.3S31.5,25,31.5,17.1C31.5,9.3,25.1,2.9,17.2,2.9z M11.5,14.3
		c-1.6,0-2.9-1.3-2.9-2.9s1.3-2.9,2.9-2.9s2.9,1.3,2.9,2.9S13.1,14.3,11.5,14.3z M17.2,27.1c-3.8,0-7.1-2.4-8.2-6
		c-0.2-0.8,0.2-1.5,0.9-1.8c0.7-0.2,1.5,0.2,1.8,0.9c0.7,2.4,2.9,4,5.4,4s4.7-1.6,5.4-4c0.2-0.8,1-1.2,1.8-0.9
		c0.7,0.2,1.2,1,0.9,1.8C24.3,24.7,21,27.1,17.2,27.1z M22.9,14.3c-1.6,0-2.9-1.3-2.9-2.9s1.3-2.9,2.9-2.9s2.9,1.3,2.9,2.9
		S24.5,14.3,22.9,14.3z"/>
</g>
</svg>
