<?xml version="1.0" encoding="utf-8"?>
<!-- Generator: Adobe Illustrator 20.1.0, SVG Export Plug-In . SVG Version: 6.00 Build 0)  -->
<svg version="1.1" id="Layer_1" xmlns="http://www.w3.org/2000/svg" xmlns:xlink="http://www.w3.org/1999/xlink" x="0px" y="0px"
	 viewBox="0 0 34.3 46.8" style="enable-background:new 0 0 34.3 46.8;" xml:space="preserve">
<style type="text/css">
	.st0{fill:#C8C8C8;}
	.st1{fill:#63A96B;}
</style>
<ellipse class="st0" cx="17.1" cy="46.2" rx="7.4" ry="0.6"/>
<g>
	<circle class="st1" cx="11.5" cy="11.4" r="2.9"/>
	<circle class="st1" cx="22.9" cy="11.4" r="2.9"/>
	<path class="st1" d="M17.2,0C7.8,0,0.1,7.7,0.1,17.2s7.7,17.1,17.1,17.1c9.5,0,17.1-7.7,17.1-17.1C34.4,7.7,26.7,0,17.2,0z
		 M17.2,31.4C9.3,31.4,2.9,25,2.9,17.2c0-7.9,6.4-14.3,14.3-14.3s14.3,6.4,14.3,14.3C31.5,25,25.1,31.4,17.2,31.4z"/>
	<path class="st1" d="M25.2,19.2c-0.2-0.1-0.5-0.1-0.7,0H10.2c-0.2,0-0.5,0-0.7,0c-0.8,0.2-1.2,1-0.9,1.8c1.1,3.6,4.1,7.2,8.7,7.2
		c4.2,0,7.8-3.6,8.9-7.2C26.4,20.2,26,19.4,25.2,19.2z M17.2,25.3c-1.8,0-3.7-1.1-4.9-3.1h10C21,24.1,19,25.3,17.2,25.3z"/>
</g>
</svg>
