<?xml version="1.0" encoding="utf-8"?>
<!-- Generator: Adobe Illustrator 20.1.0, SVG Export Plug-In . SVG Version: 6.00 Build 0)  -->
<svg version="1.1" id="Layer_1" xmlns="http://www.w3.org/2000/svg" xmlns:xlink="http://www.w3.org/1999/xlink" x="0px" y="0px"
	 viewBox="0 0 34.3 34.3" style="enable-background:new 0 0 34.3 34.3;" xml:space="preserve">
<style type="text/css">
	.st0{fill:#93BBE9;}
</style>
<g>
	<circle class="st0" cx="11.4" cy="11.4" r="2.9"/>
	<circle class="st0" cx="22.8" cy="11.4" r="2.9"/>
	<path class="st0" d="M17.1,0C7.7,0,0,7.7,0,17.2c0,9.5,7.7,17.1,17.1,17.1c9.5,0,17.1-7.7,17.1-17.1C34.3,7.7,26.6,0,17.1,0z
		 M17.1,31.4C9.2,31.4,2.8,25,2.8,17.2c0-7.9,6.4-14.3,14.3-14.3c7.9,0,14.3,6.4,14.3,14.3C31.4,25,25,31.4,17.1,31.4z"/>
	<path class="st0" d="M25.1,19.2c-0.2-0.1-0.5-0.1-0.7,0l-14.3,0c-0.2,0-0.5,0-0.7,0c-0.8,0.2-1.2,1-0.9,1.8
		c1.1,3.6,4.1,7.2,8.7,7.2c4.2,0,7.8-3.6,8.9-7.2C26.3,20.2,25.9,19.4,25.1,19.2z M17.1,25.3c-1.8,0-3.7-1.1-4.9-3.1h10
		C20.9,24.1,18.9,25.3,17.1,25.3z"/>
</g>
</svg>
