<?xml version="1.0" encoding="utf-8"?>
<!-- Generator: Adobe Illustrator 20.1.0, SVG Export Plug-In . SVG Version: 6.00 Build 0)  -->
<svg version="1.1" id="Layer_1" xmlns="http://www.w3.org/2000/svg" xmlns:xlink="http://www.w3.org/1999/xlink" x="0px" y="0px"
	 viewBox="0 0 34.3 34.3" style="enable-background:new 0 0 34.3 34.3;" xml:space="preserve">
<style type="text/css">
	.st0{fill:#93BBE9;}
</style>
<path class="st0" d="M17.1,34.3C7.7,34.3,0,26.6,0,17.1C0,7.7,7.7,0,17.1,0c9.5,0,17.1,7.7,17.1,17.1C34.3,26.6,26.6,34.3,17.1,34.3
	z M17.1,2.9C9.3,2.9,2.9,9.3,2.9,17.1c0,7.9,6.4,14.3,14.3,14.3c7.9,0,14.3-6.4,14.3-14.3C31.4,9.3,25,2.9,17.1,2.9z M11.4,14.3
	c-1.6,0-2.9-1.3-2.9-2.9s1.3-2.9,2.9-2.9s2.9,1.3,2.9,2.9S13,14.3,11.4,14.3z M22.9,14.3c-1.6,0-2.9-1.3-2.9-2.9s1.3-2.9,2.9-2.9
	c1.6,0,2.9,1.3,2.9,2.9S24.4,14.3,22.9,14.3z"/>
<path class="st0" d="M23.1,24.2H11.6c-1.1,0-2-0.9-2-2v0c0-1.1,0.9-2,2-2h11.5c1.1,0,2,0.9,2,2v0C25.1,23.3,24.2,24.2,23.1,24.2z"/>
</svg>
